<svg version="1.1" baseProfile="full" xmlns="http://www.w3.org/2000/svg"
width="1024" height="909"
viewBox="-2.437 -17.71 21.07 18.71"
>
<rect x="-2.437" y="-17.71" width="100%" height="100%" fill="white" />
<path stroke="green" stroke-width="0.04" stroke-linecap="round" fill="none"
transform="scale(1 -1)"
d="	M 0 0
	L 0 1
	L -0.2079 1.978
	L -0.6146 2.892
	L -0.8226 3.87
	L -1.229 4.783
	L -1.437 5.762
	L -1.437 6.762
	L -1.229 7.74
	L -1.229 8.74
	L -1.021 9.718
	L -0.6146 10.63
	L -0.02686 11.44
	L 0.3799 12.35
	L 0.9677 13.16
	L 1.711 13.83
	L 2.577 14.33
	L 3.528 14.64
	L 4.522 14.75
	L 5.517 14.64
	L 6.511 14.75
	L 7.506 14.64
	L 8.457 14.33
	L 9.452 14.23
	L 10.4 13.92
	L 11.4 13.81
	L 12.39 13.92
	L 13.34 14.23
	L 14.21 14.73
	L 15.16 15.04
	L 16.03 15.54
	L 16.77 16.21
	L 17.63 16.71
"/>
</svg>
