<svg version="1.1" baseProfile="full" xmlns="http://www.w3.org/2000/svg"
width="492.4" height="1024"
viewBox="-10.39 -29.15 25.8 53.65"
>
<rect x="-10.39" y="-29.15" width="100%" height="100%" fill="white" />
<path stroke="green" stroke-width="0.04" stroke-linecap="round" fill="none"
transform="scale(1 -1)"
d="	M 0 0
	L 0 1
	L -0.3827 1.924
	L -1.09 2.631
	L -1.472 3.555
	L -2.18 4.262
	L -2.562 5.186
	L -3.269 5.893
	L -3.652 6.817
	L -4.359 7.524
	L -4.742 8.448
	L -4.742 9.448
	L -4.359 10.37
	L -4.359 11.37
	L -3.976 12.3
	L -3.976 13.3
	L -3.594 14.22
	L -2.887 14.93
	L -2.504 15.85
	L -2.504 16.85
	L -2.887 17.77
	L -3.594 18.48
	L -3.976 19.41
	L -4.684 20.11
	L -5.066 21.04
	L -5.066 22.04
	L -4.684 22.96
	L -4.684 23.96
	L -5.066 24.88
	L -5.773 25.59
	L -6.156 26.52
	L -6.863 27.22
	L -7.246 28.15
	M 0 0
	L 1 1.795e-009
	L 1.924 -0.3827
	L 2.924 -0.3827
	L 3.848 6.906e-009
	L 4.848 8.701e-009
	L 5.772 -0.3827
	L 6.479 -1.09
	L 7.403 -1.472
	L 8.11 -2.18
	L 8.492 -3.103
	L 9.2 -3.811
	L 10.12 -4.193
	L 10.83 -4.9
	L 11.21 -5.824
	L 11.21 -6.824
	L 10.83 -7.748
	L 10.83 -8.748
	L 10.45 -9.672
	L 10.45 -10.67
	L 10.83 -11.6
	L 10.83 -12.6
	L 10.45 -13.52
	L 10.45 -14.52
	L 10.07 -15.44
	L 10.07 -16.44
	L 10.45 -17.37
	L 11.15 -18.07
	L 11.54 -19
	L 11.54 -20
	L 11.92 -20.92
	L 12.63 -21.63
	L 13.55 -22.01
	M 0 0
	L -1 1.795e-009
	L -1.924 -0.3827
	L -2.631 -1.09
	L -3.014 -2.014
	L -3.721 -2.721
	L -4.103 -3.645
	L -4.103 -4.645
	L -4.486 -5.569
	L -5.193 -6.276
	L -6.117 -6.658
	L -6.824 -7.365
	L -7.207 -8.289
	L -7.914 -8.996
	L -8.297 -9.92
	L -9.004 -10.63
	L -9.387 -11.55
	L -9.387 -12.55
	L -9.004 -13.48
	L -8.297 -14.18
	L -7.373 -14.56
	L -6.666 -15.27
	L -5.742 -15.65
	L -4.742 -15.65
	L -3.818 -15.27
	L -2.818 -15.27
	L -1.894 -14.89
	L -1.187 -14.18
	L -0.8043 -13.26
	L -0.09719 -12.55
	L 0.8267 -12.17
	L 1.534 -11.46
	L 2.458 -11.08
	M 0 0
	L -3.59e-009 -1
	L -0.3827 -1.924
	L -0.3827 -2.924
	L -1.381e-008 -3.848
	L 0.7071 -4.555
	L 1.631 -4.938
	L 2.631 -4.938
	L 3.555 -4.555
	L 4.555 -4.555
	L 5.479 -4.938
	L 6.186 -5.645
	L 6.569 -6.569
	L 6.569 -7.569
	L 6.951 -8.492
	L 7.658 -9.2
	L 8.041 -10.12
	L 8.748 -10.83
	L 9.131 -11.75
	L 9.838 -12.46
	L 10.76 -12.84
	L 11.47 -13.55
	L 11.85 -14.48
	L 11.85 -15.48
	L 12.23 -16.4
	L 12.23 -17.4
	L 11.85 -18.32
	L 11.85 -19.32
	L 12.23 -20.25
	L 12.94 -20.95
	L 13.32 -21.88
	L 14.03 -22.58
	L 14.41 -23.51
"/>
</svg>
