<svg version="1.1" baseProfile="full" xmlns="http://www.w3.org/2000/svg"
width="202.6" height="1024"
viewBox="-2.871 -31.96 6.52 32.96"
>
<rect x="-2.871" y="-31.96" width="100%" height="100%" fill="white" />
<path stroke="green" stroke-width="0.04" stroke-linecap="round" fill="none"
transform="scale(1 -1)"
d="	M 0 0
	L 0 1
	L -0.2079 1.978
	M 0 1
	L 0 2
	L -0.2079 2.978
	L -0.6146 3.892
	M -0.2079 2.978
	L -0.4158 3.956
	M 0 2
	L 0 3
	L -0.2079 3.978
	M 0 3
	L 0 4
	L 0.2079 4.978
	L 0.2079 5.978
	M 0.2079 4.978
	L 0.4158 5.956
	M 0 4
	L 0 5
	L -0.2079 5.978
	M 0 5
	L 0 6
	L -0.2079 6.978
	L -0.6146 7.892
	M -0.2079 6.978
	L -0.4158 7.956
	L -0.4158 8.956
	M -0.4158 7.956
	L -0.6237 8.934
	L -1.03 9.848
	L -1.618 10.66
	M -1.03 9.848
	L -1.437 10.76
	M -0.6237 8.934
	L -0.8316 9.913
	L -1.238 10.83
	M -0.8316 9.913
	L -1.04 10.89
	L -1.04 11.89
	M -1.04 10.89
	L -1.247 11.87
	L -1.247 12.87
	L -1.455 13.85
	M -1.247 12.87
	L -1.247 13.87
	M -1.247 11.87
	L -1.455 12.85
	L -1.862 13.76
	M -1.455 12.85
	L -1.663 13.83
	L -1.663 14.83
	M -1.663 13.83
	L -1.871 14.8
	M 0 6
	L 0 7
	L -0.2079 7.978
	M 0 7
	L 0 8
	L 0.2079 8.978
	M 0 8
	L 0 9
	L 0.2079 9.978
	M 0 9
	L 0 10
	L 0.2079 10.98
	M 0 10
	L 0 11
	L -0.2079 11.98
	L -0.6146 12.89
	M -0.2079 11.98
	L -0.4158 12.96
	L -0.4158 13.96
	M -0.4158 12.96
	L -0.6237 13.93
	L -0.6237 14.93
	M -0.6237 13.93
	L -0.8316 14.91
	L -1.238 15.83
	M -0.8316 14.91
	L -1.04 15.89
	L -1.04 16.89
	M -1.04 15.89
	L -1.247 16.87
	M 0 11
	L 0 12
	L -0.2079 12.98
	L -0.6146 13.89
	M -0.2079 12.98
	L -0.4158 13.96
	L -0.4158 14.96
	M -0.4158 13.96
	L -0.6237 14.93
	M 0 12
	L 0 13
	L 0.2079 13.98
	L 0.2079 14.98
	M 0.2079 13.98
	L 0.4158 14.96
	L 0.4158 15.96
	M 0.4158 14.96
	L 0.6237 15.93
	L 1.03 16.85
	M 0.6237 15.93
	L 0.8316 16.91
	L 0.8316 17.91
	L 0.6237 18.89
	M 0.8316 17.91
	L 0.8316 18.91
	L 1.04 19.89
	M 0.8316 18.91
	L 0.8316 19.91
	L 0.6237 20.89
	L 0.217 21.8
	M 0.6237 20.89
	L 0.4158 21.87
	L 0.4158 22.87
	M 0.4158 21.87
	L 0.2079 22.85
	M 0.8316 19.91
	L 0.8316 20.91
	L 0.6237 21.89
	M 0.8316 20.91
	L 0.8316 21.91
	L 1.04 22.89
	M 0.8316 21.91
	L 0.8316 22.91
	L 1.04 23.89
	L 1.446 24.8
	M 1.04 23.89
	L 1.247 24.87
	M 0.8316 22.91
	L 0.8316 23.91
	L 0.6237 24.89
	M 0.8316 23.91
	L 0.8316 24.91
	L 1.04 25.89
	M 0.8316 24.91
	L 0.8316 25.91
	M 0.8316 16.91
	L 1.04 17.89
	L 1.04 18.89
	M 1.04 17.89
	L 1.247 18.87
	L 1.654 19.78
	L 1.862 20.76
	M 1.654 19.78
	L 2.061 20.7
	L 2.649 21.5
	M 2.061 20.7
	L 2.468 21.61
	M 1.247 18.87
	L 1.455 19.85
	L 1.862 20.76
	M 1.455 19.85
	L 1.663 20.83
	M 0 13
	L 0 14
	L -0.2079 14.98
	L -0.6146 15.89
	M -0.2079 14.98
	L -0.4158 15.96
	M 0 14
	L 0 15
	L -0.2079 15.98
	M 0 15
	L 0 16
	L 0.2079 16.98
	M 0 16
	L 0 17
	L 0.2079 17.98
	L 0.2079 18.98
	M 0.2079 17.98
	L 0.4158 18.96
	L 0.8226 19.87
	M 0.4158 18.96
	L 0.6237 19.93
	M 0 17
	L 0 18
	L 0.2079 18.98
	M 0 18
	L 0 19
	L -0.2079 19.98
	L -0.2079 20.98
	M -0.2079 19.98
	L -0.4158 20.96
	M 0 19
	L 0 20
	L -0.2079 20.98
	M 0 20
	L 0 21
	L -0.2079 21.98
	L -0.6146 22.89
	M -0.2079 21.98
	L -0.4158 22.96
	M 0 21
	L 0 22
	L 0.2079 22.98
	M 0 22
	L 0 23
	L -0.2079 23.98
	M 0 23
	L 0 24
	L 0.2079 24.98
	L 0.6146 25.89
	M 0.2079 24.98
	L 0.4158 25.96
	L 0.4158 26.96
	L 0.2079 27.93
	M 0.4158 26.96
	L 0.4158 27.96
	M 0.4158 25.96
	L 0.6237 26.93
	L 0.6237 27.93
	M 0.6237 26.93
	L 0.8316 27.91
	L 1.238 28.83
	M 0.8316 27.91
	L 1.04 28.89
	L 1.446 29.8
	L 2.034 30.61
	M 1.446 29.8
	L 1.853 30.72
	M 1.04 28.89
	L 1.247 29.87
	L 1.247 30.87
	M 1.247 29.87
	L 1.455 30.85
	M 0 24
	L 0 25
	L -0.2079 25.98
	M 0 25
	L 0 26
	L 0.2079 26.98
	M 0 26
	L 0 27
	L -0.2079 27.98
	M 0 27
	L 0 28
	L 0.2079 28.98
	M 0 28
	L 0 29
	L 0.2079 29.98
	L 0.6146 30.89
	M 0.2079 29.98
	L 0.4158 30.96
	M 0 29
	L 0 30
"/>
</svg>
