<svg version="1.1" baseProfile="full" xmlns="http://www.w3.org/2000/svg"
width="1024" height="974.5"
viewBox="-7.027 -8.403 16.48 15.68"
>
<rect x="-7.027" y="-8.403" width="100%" height="100%" fill="white" />
<path stroke="green" stroke-width="0.04" stroke-linecap="round" fill="none"
transform="scale(1 -1)"
d="	M 0 0
	L 0 1
	L -0.3827 1.924
	L -0.3827 2.924
	L -0.7654 3.848
	L -0.7654 4.848
	L -1.148 5.772
	L -1.855 6.479
	L -2.238 7.403
	M 0 0
	L 1 1.795e-009
	L 1.924 -0.3827
	L 2.631 -1.09
	L 3.555 -1.472
	L 4.262 -2.18
	L 5.186 -2.562
	L 5.893 -3.269
	L 6.817 -3.652
	L 7.524 -4.359
	L 8.448 -4.742
	M 0 0
	L -1 1.795e-009
	L -1.924 0.3827
	L -2.924 0.3827
	L -3.848 6.906e-009
	L -4.555 -0.7071
	L -4.938 -1.631
	L -5.645 -2.338
	L -6.027 -3.262
	L -6.027 -4.262
	L -5.645 -5.186
	L -4.938 -5.893
	L -4.014 -6.276
	L -3.014 -6.276
	L -2.09 -5.893
	L -1.383 -5.186
	L -1 -4.262
	L -0.2929 -3.555
	L 0.08979 -2.631
	L 0.08979 -1.631
	L -0.2929 -0.7071
	L -1 -1.234e-008
	L -1.924 0.3827
	L -2.924 0.3827
	L -3.848 1.322e-008
	L -4.555 -0.7071
	L -4.938 -1.631
	M 0 0
	L -3.59e-009 -1
	L 0.3827 -1.924
	L 1.09 -2.631
	L 2.014 -3.014
	L 2.721 -3.721
	L 3.645 -4.103
	L 4.645 -4.103
	L 5.569 -3.721
	L 6.276 -3.014
	L 6.658 -2.09
	L 7.365 -1.383
	L 7.748 -0.4588
	L 7.748 0.5412
	L 8.131 1.465
	L 8.131 2.465
	L 7.748 3.389
	L 7.041 4.096
	L 6.117 4.479
	L 5.117 4.479
	L 4.193 4.861
	L 3.193 4.861
	L 2.269 4.479
	L 1.269 4.479
	L 0.3455 4.096
	L -0.6545 4.096
	L -1.578 3.713
	L -2.285 3.006
	L -2.668 2.082
"/>
</svg>
