<svg version="1.1" baseProfile="full" xmlns="http://www.w3.org/2000/svg"
width="1024" height="192.8"
viewBox="-1 -9.604 56.32 10.6"
>
<rect x="-1" y="-9.604" width="100%" height="100%" fill="white" />
<path stroke="green" stroke-width="0.04" stroke-linecap="round" fill="none"
transform="scale(1 -1)"
d="	M 0 0
	L 0.9877 0.1564
	L 1.975 0.3129
	L 2.963 0.4693
	L 3.951 0.6257
	L 4.938 0.7822
	L 5.926 0.9386
	L 6.914 1.095
	L 7.902 1.251
	L 8.889 1.408
	L 9.877 1.564
	L 10.86 1.721
	L 11.85 1.877
	L 12.84 2.034
	L 13.83 2.19
	L 14.82 2.347
	L 15.8 2.503
	L 16.79 2.659
	L 17.78 2.816
	L 18.77 2.972
	L 19.75 3.129
	L 20.74 3.285
	L 21.73 3.442
	L 22.72 3.598
	L 23.7 3.754
	L 24.69 3.911
	L 25.68 4.067
	L 26.67 4.224
	L 27.66 4.38
	L 28.64 4.537
	L 29.63 4.693
	L 30.62 4.849
	L 31.61 5.006
	L 32.59 5.162
	L 33.58 5.319
	L 34.57 5.475
	L 35.56 5.632
	L 36.54 5.788
	L 37.53 5.945
	L 38.52 6.101
	L 39.51 6.257
	L 40.5 6.414
	L 41.48 6.57
	L 42.47 6.727
	L 43.46 6.883
	L 44.45 7.04
	L 45.43 7.196
	L 46.42 7.352
	L 47.41 7.509
	L 48.4 7.665
	L 49.38 7.822
	L 50.37 7.978
	L 51.36 8.135
	L 52.35 8.291
	L 53.34 8.447
	L 54.32 8.604
"/>
</svg>
