<svg version="1.1" baseProfile="full" xmlns="http://www.w3.org/2000/svg"
width="685.1" height="1024"
viewBox="-1 -1.313 82.16 122.8"
>
<rect x="-1" y="-1.313" width="100%" height="100%" fill="white" />
<path stroke="green" stroke-width="0.04" stroke-linecap="round" fill="none"
transform="scale(1 -1)"
d="	M 0 0
	L 0.9877 0.1564
	L 1.975 0.3129
	L 2.975 0.3129
	L 3.975 0.3129
	L 4.975 0.3129
	L 5.975 0.3129
	L 6.963 0.1564
	L 7.951 1.427e-008
	L 8.938 -0.1564
	L 9.926 -0.3129
	L 10.88 -0.6219
	L 11.83 -0.9309
	L 12.78 -1.24
	L 13.73 -1.549
	L 14.62 -2.003
	L 15.51 -2.457
	L 16.4 -2.911
	L 17.29 -3.365
	L 18.25 -3.674
	L 19.2 -3.983
	L 20.15 -4.292
	L 21.1 -4.601
	L 22.09 -4.757
	L 23.07 -4.914
	L 24.06 -5.07
	L 25.05 -5.227
	L 26 -5.536
	L 26.95 -5.845
	L 27.9 -6.154
	L 28.85 -6.463
	L 29.74 -6.917
	L 30.64 -7.371
	L 31.53 -7.825
	L 32.42 -8.279
	L 33.23 -8.867
	L 34.04 -9.454
	L 34.84 -10.04
	L 35.65 -10.63
	L 36.36 -11.34
	L 37.07 -12.04
	L 37.78 -12.75
	L 38.48 -13.46
	L 39.29 -14.05
	L 40.1 -14.63
	L 40.91 -15.22
	L 41.72 -15.81
	L 42.43 -16.52
	L 43.13 -17.22
	L 43.84 -17.93
	L 44.55 -18.64
	L 45.36 -19.23
	L 46.16 -19.81
	L 46.97 -20.4
	L 47.78 -20.99
	L 48.67 -21.44
	L 49.56 -21.9
	L 50.46 -22.35
	L 51.35 -22.8
	L 52.3 -23.11
	L 53.25 -23.42
	L 54.2 -23.73
	L 55.15 -24.04
	L 56.04 -24.5
	L 56.93 -24.95
	L 57.82 -25.4
	L 58.71 -25.86
	L 59.52 -26.44
	L 60.33 -27.03
	L 61.14 -27.62
	L 61.95 -28.21
	L 62.66 -28.92
	L 63.37 -29.62
	L 64.07 -30.33
	L 64.78 -31.04
	L 65.37 -31.85
	L 65.96 -32.65
	L 66.54 -33.46
	L 67.13 -34.27
	L 67.58 -35.16
	L 68.04 -36.05
	L 68.49 -36.95
	L 68.95 -37.84
	L 69.53 -38.65
	L 70.12 -39.45
	L 70.71 -40.26
	L 71.3 -41.07
	L 72 -41.78
	L 72.71 -42.49
	L 73.42 -43.19
	L 74.13 -43.9
	L 74.71 -44.71
	L 75.3 -45.52
	L 75.89 -46.33
	L 76.48 -47.14
	L 76.93 -48.03
	L 77.39 -48.92
	L 77.84 -49.81
	L 78.29 -50.7
	L 78.6 -51.65
	L 78.91 -52.6
	L 79.22 -53.55
	L 79.53 -54.51
	L 79.69 -55.49
	L 79.84 -56.48
	L 80 -57.47
	L 80.16 -58.46
	L 80.16 -59.46
	L 80.16 -60.46
	L 80.16 -61.46
	L 80.16 -62.46
	L 80 -63.44
	L 79.84 -64.43
	L 79.69 -65.42
	L 79.53 -66.41
	L 79.53 -67.41
	L 79.53 -68.41
	L 79.53 -69.41
	L 79.53 -70.41
	L 79.37 -71.39
	L 79.22 -72.38
	L 79.06 -73.37
	L 78.9 -74.36
	L 78.59 -75.31
	L 78.29 -76.26
	L 77.98 -77.21
	L 77.67 -78.16
	L 77.21 -79.05
	L 76.76 -79.94
	L 76.31 -80.83
	L 75.85 -81.73
	L 75.26 -82.54
	L 74.68 -83.34
	L 74.09 -84.15
	L 73.5 -84.96
	L 72.79 -85.67
	L 72.09 -86.38
	L 71.38 -87.08
	L 70.67 -87.79
	L 70.08 -88.6
	L 69.5 -89.41
	L 68.91 -90.22
	L 68.32 -91.03
	L 67.61 -91.73
	L 66.91 -92.44
	L 66.2 -93.15
	L 65.49 -93.85
	L 64.9 -94.66
	L 64.32 -95.47
	L 63.73 -96.28
	L 63.14 -97.09
	L 62.43 -97.8
	L 61.73 -98.51
	L 61.02 -99.21
	L 60.31 -99.92
	L 59.5 -100.5
	L 58.69 -101.1
	L 57.89 -101.7
	L 57.08 -102.3
	L 56.19 -102.7
	L 55.29 -103.2
	L 54.4 -103.6
	L 53.51 -104.1
	L 52.7 -104.7
	L 51.89 -105.3
	L 51.09 -105.8
	L 50.28 -106.4
	L 49.57 -107.1
	L 48.86 -107.9
	L 48.16 -108.6
	L 47.45 -109.3
	L 46.64 -109.9
	L 45.83 -110.4
	L 45.02 -111
	L 44.21 -111.6
	L 43.51 -112.3
	L 42.8 -113
	L 42.09 -113.7
	L 41.38 -114.4
	L 40.57 -115
	L 39.77 -115.6
	L 38.96 -116.2
	L 38.15 -116.8
	L 37.26 -117.3
	L 36.37 -117.7
	L 35.47 -118.2
	L 34.58 -118.6
	L 33.63 -118.9
	L 32.68 -119.2
	L 31.73 -119.5
	L 30.78 -119.8
	L 29.79 -120
	L 28.8 -120.2
	L 27.82 -120.3
	L 26.83 -120.5
	L 25.83 -120.5
	L 24.83 -120.5
	L 23.83 -120.5
	L 22.83 -120.5
	L 21.84 -120.3
	L 20.85 -120.2
	L 19.87 -120
	L 18.88 -119.8
	L 17.93 -119.5
	L 16.98 -119.2
	L 16.02 -118.9
	L 15.07 -118.6
	L 14.18 -118.2
	L 13.29 -117.7
	L 12.4 -117.3
	L 11.51 -116.8
	L 10.56 -116.5
	L 9.608 -116.2
	L 8.656 -115.9
	L 7.705 -115.6
	L 6.814 -115.1
	L 5.923 -114.7
	L 5.032 -114.2
	L 4.141 -113.7
	L 3.332 -113.2
	L 2.523 -112.6
"/>
</svg>
